Coordinates
version=1
nRows=10
nColumns=63
inDegrees=yes

Units are S.I. units (second, meters, Newtons, ...)
If the header above contains a line with 'inDegrees', this indicates whether rotational values are in degrees (yes) or radians (no).

endheader
time	pelvis_tilt	pelvis_list	pelvis_rotation	pelvis_tx	pelvis_ty	pelvis_tz	hip_flexion_r	hip_adduction_r	hip_rotation_r	knee_angle_r	knee_angle_r_beta	ankle_angle_r	subtalar_angle_r	mtp_angle_r	hip_flexion_l	hip_adduction_l	hip_rotation_l	knee_angle_l	knee_angle_l_beta	ankle_angle_l	subtalar_angle_l	mtp_angle_l	L5_S1_Flex_Ext	L5_S1_Lat_Bending	L5_S1_axial_rotation	L4_L5_Flex_Ext	L4_L5_Lat_Bending	L4_L5_axial_rotation	L3_L4_Flex_Ext	L3_L4_Lat_Bending	L3_L4_axial_rotation	L2_L3_Flex_Ext	L2_L3_Lat_Bending	L2_L3_axial_rotation	L1_L2_Flex_Ext	L1_L2_Lat_Bending	L1_L2_axial_rotation	L1_T12_Flex_Ext	L1_T12_Lat_Bending	L1_T12_axial_rotation	Abs_r3	Abs_r2	Abs_r1	Abs_t1	Abs_t2	neck_flexion	neck_bending	neck_rotation	arm_flex_r	arm_add_r	arm_rot_r	elbow_flex_r	pro_sup_r	wrist_flex_r	wrist_dev_r	arm_flex_l	arm_add_l	arm_rot_l	elbow_flex_l	pro_sup_l	wrist_flex_l	wrist_dev_l
      7.05084746	     -1.54503198	     -7.06539547	     62.04428769	      0.46559619	      1.13698137	      0.17914030	     10.89012348	      2.99065551	    -20.04232866	     16.94134912	      0.29568232	     16.59502473	    -13.29259633	      0.00000000	      7.45772271	     -5.46420778	    -10.95019287	     11.83785576	      0.20660956	     24.52104271	      1.18832525	      0.00000000	      0.19485939	      0.54829948	     -0.16493369	      0.36187338	      0.72923831	     -0.17524204	      0.32013450	      1.33313537	     -0.17524204	      0.22270480	      1.33313537	     -0.14431698	      0.18094643	      1.11809231	     -0.13400862	      0.11134266	      0.84931590	     -0.12370027	      1.39186116	      6.20247343	     -0.91731169	      0.00000000	      0.00000000	     18.07873152	     -5.54288538	     11.52339203	     -3.38921539	    -40.32395164	      2.97083896	    106.36181540	     82.44625781	     -4.50135644	     33.63290446	    100.95843173	    -54.76263434	     36.90091997	    102.00834564	     85.63308892	      1.59428341	     12.27788374
      7.06779661	     -1.27356970	     -6.54914271	     61.97293252	      0.46483385	      1.13821101	      0.17953825	     10.27035957	      2.94929788	    -20.00220764	     16.93926452	      0.29564594	     15.59787610	    -13.40747900	      0.00000000	      6.56459016	     -5.19971132	    -11.57855035	     11.52146184	      0.20108744	     24.38595302	     -0.16238897	      0.00000000	      0.16509385	      0.52242801	     -0.00486806	      0.30659578	      0.69482925	     -0.00517231	      0.27123268	      1.27023146	     -0.00517231	      0.18868576	      1.27023146	     -0.00425955	      0.15330615	      1.06533519	     -0.00395530	      0.09433462	      0.80924098	     -0.00365104	      1.17924884	      5.90981010	     -0.02707468	      0.00000000	      0.00000000	     17.77977629	     -7.55130193	      8.96990857	      0.22687240	    -43.16796256	      5.61521345	    107.45703375	     80.19716726	     -6.62596194	     33.47735479	    106.33226125	    -52.65888001	     39.99886451	     97.44758892	     83.35801302	     -1.83710036	     13.32356692
      7.08474576	     -1.08266712	     -6.15123542	     61.84174131	      0.46370854	      1.13887985	      0.17967155	      9.77991254	      2.83837093	    -19.97212398	     16.96332724	      0.29606591	     15.25367188	    -13.01572209	      0.00000000	      5.82702293	     -4.84552163	    -11.65264327	     11.31419388	      0.19746994	     24.25948988	     -2.33862764	      0.00000000	      0.13498804	      0.50351910	      0.12423546	      0.25068629	      0.66968040	      0.13200017	      0.22177186	      1.22425634	      0.13200017	      0.15427783	      1.22425634	      0.10870602	      0.12534990	      1.02677615	      0.10094131	      0.07713217	      0.77995109	      0.09317659	      0.96420609	      5.69590877	      0.69096034	      0.00000000	      0.00000000	     17.56435757	     -9.39535586	      7.24216868	      4.03615161	    -45.95199178	      8.06663961	    108.66574393	     78.05036031	     -6.98818591	     33.03244614	    111.53141953	    -50.67137327	     42.97375638	     92.64100361	     81.61440587	     -5.32817791	     13.30292290
      7.10169492	     -0.87206197	     -5.93147139	     61.68008743	      0.46222684	      1.13904085	      0.17960268	      9.41779481	      2.79636225	    -20.02509711	     16.97003583	      0.29618300	     15.38875300	    -12.28538244	      0.00000000	      5.28800992	     -4.52029221	    -10.98981933	     11.26832067	      0.19666930	     23.93327733	     -5.52254700	      0.00000000	      0.09876166	      0.50515225	      0.22513681	      0.18341028	      0.67185249	      0.23920786	      0.16225554	      1.22822718	      0.23920786	      0.11287471	      1.22822718	      0.19699471	      0.09171008	      1.03010647	      0.18292366	      0.05643241	      0.78248084	      0.16885261	      0.70544469	      5.71438328	      1.25214340	      0.00000000	      0.00000000	     17.56051474	    -10.67910608	      6.46339776	      7.89847787	    -48.58751099	     10.18594357	    110.06163385	     75.97795464	     -5.46090919	     31.80024757	    116.72315638	    -48.98292419	     46.18658078	     87.60780903	     80.52264001	     -8.79795552	     12.08946186
      7.11864407	     -0.43169305	     -5.93260526	     61.36418309	      0.46046257	      1.13886402	      0.17910179	      9.11666781	      3.07728516	    -19.81446651	     16.94610641	      0.29576535	     15.48504153	    -11.81312421	      0.00000000	      4.87967331	     -4.63134931	    -11.44872415	     11.53658788	      0.20135144	     24.05028341	     -7.07446070	      0.00000000	      0.05089481	      0.54757951	      0.39878181	      0.09451675	      0.72828075	      0.42370568	      0.08361508	      1.33138482	      0.42370568	      0.05816768	      1.33138482	      0.34893409	      0.04726092	      1.11662413	      0.32401022	      0.02908129	      0.84820066	      0.29908636	      0.36353654	      6.19432892	      2.21790482	      0.00000000	      0.00000000	     17.97387322	    -11.15311648	      5.96339784	     10.92067822	    -51.40897010	     11.31720462	    111.98244865	     75.58364983	     -3.43473705	     29.33189031	    120.93919060	    -46.85399470	     47.85213554	     82.31557878	     81.02401215	     -9.45944760	     11.19586624
      7.13559322	     -0.55766004	     -6.01343007	     61.42144190	      0.45866452	      1.13812674	      0.17787668	      9.10759836	      2.82043368	    -19.94091240	     16.91684466	      0.29525464	     15.59828730	    -11.56917672	      0.00000000	      4.80378079	     -4.05138946	     -9.99439462	     11.61321509	      0.20268884	     23.10172814	    -10.83337989	      0.00000000	      0.06049212	      0.52413893	      0.37038139	      0.11233992	      0.69710477	      0.39353023	      0.09938250	      1.27439138	      0.39353023	      0.06913644	      1.27439138	      0.32408372	      0.05617298	      1.06882410	      0.30093488	      0.03456520	      0.81189120	      0.27778604	      0.43208916	      5.92916435	      2.05995018	      0.00000000	      0.00000000	     18.45018112	    -10.36522240	      6.25085042	     15.11616056	    -53.46664814	     13.45947652	    112.66929815	     75.31714617	      1.91090067	     24.17278960	    126.49843547	    -45.75190834	     52.97022801	     76.79707573	     79.88625745	    -12.76615763	      7.00373702
      7.15254237	     -0.28767510	     -6.21975653	     61.42998241	      0.45691321	      1.13761818	      0.17606068	      8.96764732	      3.05234126	    -19.84248689	     16.78760376	      0.29299896	     14.94412699	    -12.27951272	      0.00000000	      4.65351617	     -4.04231975	     -9.72319483	     11.84242075	      0.20668923	     22.57755862	    -12.65964540	      0.00000000	      0.05684779	      0.53835576	      0.44709721	      0.10557202	      0.71601316	      0.47504078	      0.09339523	      1.30895819	      0.47504078	      0.06497133	      1.30895819	      0.39121005	      0.05278885	      1.09781506	      0.36326648	      0.03248282	      0.83391307	      0.33532290	      0.40605805	      6.08998799	      2.48662053	      0.00000000	      0.00000000	     19.40366573	     -8.99371624	      5.93852710	     18.14582666	    -55.87180288	     14.68597999	    113.94692233	     76.89239153	      4.63725219	     19.10607426	    130.62187263	    -43.68533534	     56.25262294	     71.02911946	     79.38024272	    -13.12566174	      3.65102369
      7.16949153	      0.05518778	     -6.47627472	     61.74526703	      0.45498136	      1.13741305	      0.17337691	      8.78331819	      3.41663620	    -19.47679601	     16.56893962	      0.28918255	     13.43781592	    -14.03799322	      0.00000000	      4.53790506	     -4.18200138	     -9.92800170	     12.03598644	      0.21006759	     22.08125930	    -13.35806740	      0.00000000	      0.07078291	      0.54897132	      0.54458331	      0.13145095	      0.73013186	      0.57861977	      0.11628925	      1.33476887	      0.57861977	      0.08089779	      1.33476887	      0.47651040	      0.06572901	      1.11946232	      0.44247394	      0.04044536	      0.85035657	      0.40843748	      0.50559527	      6.21007337	      3.02880899	      0.00000000	      0.00000000	     20.68429958	     -7.08154263	      4.87141023	     19.96856144	    -58.51666522	     14.93342836	    115.43617486	     79.42200047	      5.77292931	     14.11644939	    133.98322507	    -40.98304641	     59.43408042	     65.12974565	     78.66177259	    -12.95900853	      0.57523541
      7.18644068	      0.58341845	     -6.76287897	     62.34591206	      0.45271190	      1.13752872	      0.17021833	      8.52142830	      3.84286782	    -20.02621545	     16.40108985	      0.28625302	     11.78932882	    -14.94739023	      0.00000000	      4.47138556	     -4.55251314	    -10.22500595	     12.29520572	      0.21459182	     21.77117230	    -13.44411163	      0.00000000	      0.08179535	      0.56974116	      0.65682556	      0.15190215	      0.75775575	      0.69787715	      0.13438158	      1.38526866	      0.69787715	      0.09348391	      1.38526866	      0.57472236	      0.07595516	      1.16181618	      0.53367076	      0.04673786	      0.88252906	      0.49261917	      0.58425602	      6.44502598	      3.65306669	      0.00000000	      0.00000000	     22.51928632	     -4.91827491	      3.32008614	     20.97930664	    -61.51380680	     14.46085076	    117.18920928	     80.05038047	      5.41816886	     10.80146134	    136.54684176	    -37.84111063	     61.87576311	     59.62330557	     79.33756867	    -11.80491835	     -0.46135245
      7.20338983	      0.86175945	     -7.05872331	     63.06485650	      0.45101705	      1.13778610	      0.16625087	      8.38936236	      4.11090893	    -20.12630777	     16.26886687	      0.28394529	      9.79675249	    -16.64075388	      0.00000000	      4.41509347	     -4.72249958	    -10.55575072	     12.22926914	      0.21344101	     21.42136090	    -13.04821827	      0.00000000	      0.13345988	      0.54978448	      0.85372632	      0.24784834	      0.73121335	      0.90708422	      0.21926123	      1.33674598	      0.90708422	      0.15253129	      1.33674598	      0.74701053	      0.12393084	      1.12112051	      0.69365264	      0.07625897	      0.85161616	      0.64029474	      0.95329055	      6.21927196	      4.74816969	      0.00000000	      0.00000000	     24.26923853	     -3.31477289	      0.63551594	     19.23176346	    -64.63080606	     11.36657418	    119.20890033	     82.80975673	      3.46531807	      6.31834575	    138.62090462	    -34.01530136	     64.96344128	     54.00500435	     78.43604172	    -10.71401995	     -1.95517832
